<?xml version="1.0" standalone="no"?>
<!DOCTYPE svg PUBLIC "-//W3C//DTD SVG 20010904//EN"
 "http://www.w3.org/TR/2001/REC-SVG-20010904/DTD/svg10.dtd">
<svg version="1.0" xmlns="http://www.w3.org/2000/svg"
 width="619.000000pt" height="619.000000pt" viewBox="0 0 619.000000 619.000000"
 preserveAspectRatio="xMidYMid meet">
<metadata>
Created by potrace 1.11, written by Peter Selinger 2001-2013
</metadata>
<g transform="translate(0.000000,619.000000) scale(0.100000,-0.100000)"
fill="#000000" stroke="none">
<path d="M2959 5495 c-2 -2 -37 -6 -76 -10 -40 -3 -80 -8 -90 -9 -10 -2 -38
-7 -63 -11 -284 -44 -618 -169 -887 -331 -384 -231 -719 -597 -928 -1013 -78
-154 -168 -396 -189 -507 -2 -10 -9 -37 -14 -59 -14 -52 -39 -201 -49 -290
-15 -140 -9 -470 11 -605 2 -14 7 -47 11 -75 12 -81 61 -273 98 -381 34 -101
113 -291 128 -308 4 -4 -13 -48 -37 -96 -141 -285 -222 -564 -222 -774 -1
-248 113 -422 325 -498 208 -74 595 6 987 204 l69 35 91 -42 c111 -52 313
-125 386 -140 3 -1 46 -11 95 -23 50 -11 113 -24 140 -27 28 -4 57 -8 65 -10
71 -19 484 -27 595 -12 28 3 70 9 95 12 122 14 315 60 455 108 668 228 1202
718 1484 1361 103 236 164 465 198 746 10 86 10 427 0 515 -33 275 -107 547
-211 769 l-43 92 42 85 c81 162 172 409 196 534 5 28 12 61 15 75 14 62 13
238 -1 305 -76 361 -428 475 -935 305 -121 -41 -244 -91 -343 -141 -89 -45
-97 -46 -146 -19 -128 69 -481 182 -638 204 -24 3 -62 9 -85 12 -24 3 -54 8
-68 11 -30 6 -456 14 -461 8z m450 -259 c14 -3 47 -8 75 -11 130 -15 340 -73
510 -142 414 -166 772 -458 1022 -833 46 -70 84 -131 84 -136 0 -15 -169 -289
-256 -417 -71 -103 -261 -365 -274 -377 -3 -3 -18 -23 -35 -45 -27 -36 -284
-346 -350 -420 -142 -162 -568 -597 -730 -744 -38 -35 -90 -83 -115 -105 -106
-98 -371 -319 -500 -419 -245 -190 -580 -416 -757 -512 l-52 -28 -128 86 c-70
47 -137 93 -148 104 -11 10 -33 29 -50 42 -88 68 -263 252 -357 376 -216 286
-370 658 -423 1020 -4 22 -9 51 -12 65 -9 44 -11 413 -3 475 5 33 11 85 15
115 3 30 9 63 12 73 3 11 6 29 8 40 20 159 148 496 267 702 169 293 471 598
772 780 73 43 251 134 321 162 185 75 415 131 610 149 39 4 72 8 74 10 6 6
393 -4 420 -10z m1856 -10 c126 -54 164 -188 120 -426 -16 -86 -121 -388 -144
-413 -5 -4 -19 9 -33 31 -54 81 -190 244 -280 334 -118 118 -170 164 -288 251
-52 38 -99 73 -103 77 -16 14 289 125 403 147 14 2 43 8 65 12 70 13 216 6
260 -13z m-10 -1429 c1 -7 5 -19 8 -27 37 -92 100 -341 113 -445 3 -27 9 -77
14 -110 13 -97 5 -428 -14 -549 -51 -327 -177 -650 -362 -923 -47 -70 -89
-130 -93 -133 -3 -3 -24 -27 -46 -55 -76 -96 -225 -237 -367 -350 -14 -11
-148 -101 -213 -143 -42 -26 -272 -139 -320 -156 -27 -10 -59 -22 -70 -27 -35
-16 -228 -68 -310 -84 -183 -36 -271 -43 -485 -40 -202 3 -334 20 -507 64 -80
21 -282 86 -290 95 -2 2 76 57 174 122 182 120 370 253 503 356 41 32 88 68
105 81 31 23 332 273 351 291 6 6 39 36 74 66 159 139 487 463 675 665 61 65
117 126 125 134 8 9 67 77 130 151 236 277 444 553 657 874 126 189 136 198
148 143z m-4075 -2329 c106 -140 273 -309 410 -417 124 -98 131 -103 155 -116
10 -6 17 -15 17 -19 -1 -12 -113 -60 -237 -101 -336 -113 -550 -84 -606 82
-14 42 -18 181 -7 259 14 93 74 281 136 427 17 38 17 38 32 17 8 -12 53 -71
100 -132z"/>
</g>
</svg>
